<svg xmlns="http://www.w3.org/2000/svg" viewBox="0 0 512 512">
<path d="M150.26 0c-27.62 0-50.087 22.467-50.087 50.087s22.467 50.087 50.087 50.087c27.619 0 50.087-22.468 50.087-50.087S177.879 0 150.26 0zm0 66.783c-9.22 0-16.696-7.475-16.696-16.696s7.475-16.696 16.696-16.696 16.696 7.475 16.696 16.696-7.476 16.696-16.696 16.696z"/>
<circle cx="250.44" cy="83.478" r="16.696"/>
<circle cx="294.96" cy="27.826" r="16.696"/>
<path d="M441.52 166.96h20.388c9.22 0 16.696-7.475 16.696-16.696s-7.475-16.696-16.696-16.696h-104.22l71.509-71.509c6.52-6.52 6.52-17.091 0-23.611s-17.091-6.52-23.611 0l-95.121 95.12H50.085c-9.22 0-16.696 7.475-16.696 16.696s7.475 16.696 16.696 16.696h20.388c-23.292 35.143-37.084 77.11-37.084 122.43 0 45.963 13.945 88.663 37.816 124.13-21.694 5.497-37.816 24.989-37.816 48.393 0 27.662 22.424 50.087 50.087 50.087 23.404 0 42.896-16.121 48.393-37.816C167.335 498.055 210.035 512 255.999 512c45.961 0 88.658-13.944 124.12-37.811 5.498 21.693 24.99 37.811 48.392 37.811 27.662 0 50.087-22.424 50.087-50.087 0-23.402-16.118-42.891-37.809-48.392 23.87-35.465 37.817-78.166 37.817-124.13 0-45.324-13.792-87.291-37.084-122.43zM261.83 445.11c-.211.011-.424.011-.63.011-8.934 0-16.343-7.076-16.673-16.076-.343-9.217 6.853-16.967 16.066-17.304 63.195-2.337 114.9-54.332 117.72-117.49.407-9.217 7.989-16.663 17.424-15.935 9.212.402 16.343 8.206 15.934 17.414-3.583 80.412-69.404 146.41-149.84 149.38z"/>
</svg>